<svg xmlns="http://www.w3.org/2000/svg" width="959.5" height="242" viewBox="0 0 1919 484"><g><g><path fill="#f2f5f8" d="M1626.742 483.882c-.451.116-.902.184-1.305.184-1.346 0-2.514-.586-3.375-1.615L1586 435.821h-46.808l-43.932 41.196c-.86.737-1.844 1.146-2.834 1.146-1.168 0-2.255-.456-3.15-1.303-1.57-1.703-1.441-4.376.178-5.971l37.408-35.069h-52.334c-2.384 0-4.27-1.86-4.27-4.22v-41.238l-33.589 32.649-.048.068c-.273.183-.499.313-.765.491-.218.109-.403.266-.628.403-.403.162-.902.224-1.353.224-.088 0-.137.068-.226.068-.088 0-.136-.068-.177-.068-.444 0-.942-.062-1.352-.224-.22-.137-.397-.294-.622-.403-.274-.178-.499-.308-.772-.49l-.089-.07-33.59-32.647V431.6c0 2.359-1.892 4.22-4.275 4.22h-52.383l37.456 35.068c1.667 1.595 1.756 4.268.225 5.971-.894.847-1.974 1.303-3.149 1.303-.943 0-2.021-.41-2.828-1.146l-43.972-41.197h-46.815l-36.021 46.631c-.806 1.029-2.063 1.615-3.368 1.615a5.44 5.44 0 0 1-1.353-.184c-1.667-.626-2.835-2.221-2.835-3.995v-58.246l-33.138-15.748-36.827 17.813v50.244c0 1.786-1.032 3.313-2.65 3.94-.5.136-.992.273-1.484.273a4.065 4.065 0 0 1-3.149-1.467l-36.65-41.926h-56.474l-40.7 42.11c-.847.827-1.98 1.283-3.013 1.283a4.272 4.272 0 0 1-2.964-1.166c-1.756-1.622-1.756-4.26-.137-5.946l35.12-36.28h-48.694v1.587c0 2.285-1.94 4.153-4.229 4.153-2.342 0-4.235-1.868-4.235-4.153v-1.588h-1.53c-2.288 0-4.222-1.888-4.222-4.2 0-2.33 1.934-4.185 4.222-4.185h1.53v-48.628l-36.283 35.001c-.855.79-1.937 1.206-2.97 1.206-.225 0-.402-.245-.628-.287-.273.042-.406.287-.631.287-1.08 0-2.111-.417-2.969-1.206l-36.332-35.001v48.628h1.619c2.248 0 4.137 1.854 4.137 4.186 0 2.311-1.89 4.2-4.137 4.2h-1.619v1.587a4.155 4.155 0 0 1-4.18 4.153c-2.34 0-4.273-1.868-4.273-4.153v-1.588h-48.656l35.12 36.281c1.574 1.686 1.574 4.324-.134 5.946a4.373 4.373 0 0 1-2.968 1.166c-1.032 0-2.158-.456-3.013-1.283l-40.696-42.11h-56.475l-36.649 41.926a4.16 4.16 0 0 1-3.19 1.467c-.5 0-.947-.137-1.442-.274a4.19 4.19 0 0 1-2.698-3.94v-50.243l-36.78-17.813-33.186 15.748v58.246c0 1.774-1.175 3.369-2.835 3.995a5.676 5.676 0 0 1-1.305.184c-1.345 0-2.562-.586-3.371-1.615l-36.062-46.63h-46.812l-43.931 41.196c-.858.737-1.845 1.146-2.832 1.146-1.175 0-2.25-.456-3.152-1.303-1.572-1.703-1.441-4.376.18-5.971l37.412-35.069h-52.338c-2.343 0-4.276-1.86-4.276-4.22v-41.238l-33.586 32.649-.045.068c-.272.183-.495.313-.764.491-.229.109-.41.266-.633.403-.402.162-.894.224-1.393.224-.044 0-.089.068-.136.068-.09 0-.181-.068-.226-.068-.447 0-.943-.062-1.345-.224-.226-.137-.452-.294-.677-.403-.27-.178-.448-.308-.717-.49l-.092-.07-33.59-32.648v41.239c0 2.359-1.841 4.22-4.225 4.22h-52.433l37.456 35.068a4.277 4.277 0 0 1 .18 5.971c-.853.847-1.933 1.303-3.101 1.303-.99 0-2.021-.41-2.831-1.146l-43.977-41.197h-46.814l-36.018 46.631c-.85 1.029-2.066 1.615-3.374 1.615-.448 0-.851-.068-1.346-.184-1.664-.626-2.835-2.221-2.835-3.995v-58.246l-33.143-15.748-36.826 17.813v50.244c0 1.786-1.032 3.313-2.65 3.94-.493.136-.991.273-1.487.273a4.067 4.067 0 0 1-3.145-1.467l-36.65-41.926h-56.478l-40.697 42.11c-.898.827-1.977 1.283-3.01 1.283-1.079 0-2.158-.41-2.967-1.166-1.756-1.622-1.756-4.26-.137-5.946l35.076-36.28H56.86v1.587c0 2.285-1.937 4.153-4.225 4.153-2.343 0-4.232-1.868-4.232-4.153v-1.588h-1.571c-2.295 0-4.185-1.888-4.185-4.2a4.182 4.182 0 0 1 4.185-4.185h1.57v-48.628L12.12 412.758c-.858.79-1.934 1.206-3.016 1.206a3.99 3.99 0 0 1-2.969-1.274c-1.615-1.711-1.615-4.351.048-5.946l42.221-40.638v-56.405L6.364 273.2c-1.304-1.165-1.8-3.013-1.127-4.65a4.116 4.116 0 0 1 3.867-2.74h50.36l17.853-36.643-15.739-33.132H3.171c-1.756 0-3.375-1.146-3.959-2.85-.584-1.683 0-3.565 1.441-4.677L47.417 152.5v-46.693L6.05 61.993c-1.53-1.732-1.486-4.356.222-5.944 1.62-1.596 4.317-1.507 5.937.15l35.208 37.365v-52.35a4.13 4.13 0 0 1 4.136-4.124h41.37L60.188 3.562v-.089l-.045-.047c-.18-.151-.225-.355-.314-.532a3.85 3.85 0 0 1-.587-.812c-.09-.251-.09-.49-.137-.735 0-.317-.168-.56-.172-.829h10.074l35.656 36.572h61.96L206.27.518h10.357v55.837l36.062 16.232 34.939-16.163V.518h9.993l37.627 40.225h30.355L411.863.518h10.615c-.003 1.217-.49 2.357-1.432 3.112l-42.583 37.113h60.566c2.34 0 4.276 1.883 4.276 4.193v60.586l37.145-42.54c1.615-1.882 4.72-1.882 6.336 0l37.056 42.383v-60.43c0-2.31 1.934-4.192 4.226-4.192h60.705L546.187 3.63c-.939-.755-1.432-1.895-1.436-3.112h10.578l46.26 40.225h30.307L669.476.518h9.996v55.906l34.98 16.163 36.017-16.232V.518h10.402l39.65 36.572h61.963L898.134.518h10.081c-.005.27-.18.56-.18.83-.091.243-.091.483-.18.734-.134.335-.36.567-.54.812-.133.177-.178.38-.314.532l-.09.047v.089l-32.69 33.528h41.367a4.13 4.13 0 0 1 4.139 4.124v52.35L954.895 56.2c.987-1.07 2.38-1.228 3.73-1.01 1.345-.218 2.698-.02 3.688 1.01l35.208 37.365v-52.35c0-2.27 1.893-4.124 4.182-4.124h41.321l-32.687-33.528v-.089l-.088-.047c-.185-.151-.226-.355-.363-.532-.184-.245-.41-.545-.54-.812-.088-.251-.088-.49-.13-.735 0-.317-.177-.56-.182-.829h10.126l35.607 36.572h62.008L1156.33.518h10.4v55.837l36.063 16.232 34.935-16.163V.518h9.997l37.624 40.225h30.406L1361.964.518h10.62c-.004 1.217-.494 2.357-1.433 3.112l-42.546 37.113h60.573c2.302 0 4.229 1.883 4.229 4.193v60.586l37.182-42.54c1.62-1.882 4.68-1.882 6.346 0l37.005 42.383v-60.43c0-2.31 1.94-4.192 4.277-4.192h60.654L1496.34 3.63c-.987-.755-1.484-1.895-1.487-3.112h10.585l46.256 40.225h30.303L1619.58.518h9.99v55.906l34.942 16.163 36.062-16.232V.518h10.402l39.603 36.572h62.014l35.65-36.572h10.07c-.003.27-.128.56-.17.83-.047.243-.047.483-.184.734-.136.335-.362.567-.54.812-.13.177-.13.38-.355.532v.136L1824.33 37.09h41.323c2.288 0 4.18 1.854 4.18 4.124v52.35L1905 56.2c1.612-1.677 4.31-1.746 5.977-.15 1.667 1.588 1.749 4.212.225 5.944l-41.37 43.814V152.5l46.767 36.008c1.387 1.112 2.022 2.994 1.387 4.678-.533 1.703-2.152 2.85-3.955 2.85h-58.36l-15.787 33.131 17.898 36.643h50.312c1.756 0 3.381 1.084 3.914 2.74a4.204 4.204 0 0 1-1.12 4.65l-42.094 36.5v56.366l42.23 40.678c1.654 1.595 1.702 4.235.09 5.946-.807.857-1.94 1.274-3.02 1.274s-2.11-.417-2.958-1.206l-36.342-35.001v48.628h1.619c2.295 0 4.14 1.854 4.14 4.186 0 2.311-1.845 4.2-4.14 4.2h-1.62v1.587a4.149 4.149 0 0 1-4.173 4.153c-2.344 0-4.229-1.868-4.229-4.153v-1.588h-48.707l35.127 36.281c1.571 1.686 1.571 4.324-.136 5.946a4.377 4.377 0 0 1-2.972 1.166c-1.032 0-2.152-.456-2.972-1.283l-40.728-42.11h-56.488l-36.601 41.926c-.854.956-2.023 1.467-3.19 1.467-.5 0-.984-.137-1.483-.274-1.578-.626-2.698-2.153-2.698-3.94v-50.243l-36.739-17.813-33.234 15.748v58.246c0 1.774-1.12 3.369-2.828 3.995zm36.062-87.28l37.77-18.02v-48.458l-35.345-34.386-37.182 43.87v40.038zm-41.596-208.966v-60.373l-20.862-23.493-48.789 14.296-14.386 48.757 23.513 20.813zm-51.036 8.4l37.278 32.893 13.758-11.241v-21.653zm-12.686 0h-26.62l-15.733 34.842 16.73 35.969h29.278l39.65-32.518zm-18.068 99.464l22.796 60.851 30.89 11.554 26.486-31.352v-61.294h-55.443zm80.172-28.653v-15.912l-12.365-10.949-32.872 26.861zm7.015-20.985a4.149 4.149 0 0 1 1.442 3.171v17.814h17.843c1.134 0 2.118.442 2.93 1.233l15.787 15.327 12.768-15.053c.854-.948 2.022-1.507 3.28-1.507h19.919V246.9c0-1.214.499-2.339 1.482-3.165l15.159-12.768-15.52-15.735c-.67-.803-1.121-1.854-1.121-2.931V194.46h-17.843c-1.182 0-2.343-.53-3.197-1.431l-11.333-12.796-11.695 14.276a4.211 4.211 0 0 1-3.232 1.526h-23.704v23.602c0 1.281-.533 2.447-1.476 3.259l-14.304 11.684zm24.64-58.226l11.334-13.75-33.01-37.175v50.925zm33.372-1.595h15.957v-45.097l-26.976 32.764zm24.367 89.218v51.314l32.059 31.188 35.208-15.392 15.425-35.115-31.342-31.995zm43.255-8.412L1723.01 237l-14.025 11.876v17.971zm11.695 0h48.66l17.931-37.68-16.9-34.707h-40.066l-44.116 37.142zm37.86-107.271l-11.56-30.766-60.969-22.749-20.281 24.61v55.37h61.426zm-92.81 34.884v16.157l14.611 14.964 36.875-31.121zm-26.39 80.799l-11.92 14.05 29.9 29.096v-43.146zm-38.405 0h-16.142v51.382l31.157-36.8zm147.712 151.126l-35.297-36.376c-1.168-1.282-1.393-3.185-.717-4.74l14.926-31.338-28.999 12.653c-1.625.688-3.381.375-4.59-.859l-28.24-27.42v42.93c0 1.635-.943 3.087-2.426 3.79l-34.088 16.245 33.098 16.049c1.435.708 2.377 2.194 2.377 3.783v41.64l30.488-34.952c.724-.9 1.94-1.405 3.156-1.405zm68.49-56.734l-40.25-38.749-37.592 17.821-17.809 37.509 38.808 40.153h56.843zm-25.138-130.83l-16.28 34.038a4.098 4.098 0 0 1-3.73 2.4h-43.077l27.516 28.156c1.168 1.24 1.441 3.074.806 4.629l-12.727 28.918 31.431-14.874c1.578-.785 3.422-.47 4.727.756l36.472 35.123V307.79c0-1.212.54-2.351 1.435-3.183l34.983-30.398h-41.684c-1.62 0-3.054-.922-3.779-2.332zm27.836-80.93a4.077 4.077 0 0 1-1.666-3.284V114.74l-26.307 28.053c-1.169 1.234-3.013 1.595-4.59 1.029l-29.9-11.104 10.075 26.702c.676 1.616.178 3.497-1.216 4.684l-26.034 21.938h32.824c1.578 0 3.012.975 3.73 2.386l15.2 31.053 14.079-29.465c.669-1.472 2.158-2.379 3.73-2.379h48.693zM1781.34 81.13l15.418 41.176 34.081 12.674 30.584-32.445v-57.06h-45.285zm-106.67-3.88l31.888 14.787c1.483.627 2.426 2.202 2.426 3.812v21.61l15.69-19.055c1.128-1.43 3.02-1.902 4.721-1.254l56.939 21.25-13.813-36.868c-.54-1.452-.219-3.185.902-4.397l30.89-31.66h-55.353a4.152 4.152 0 0 1-2.883-1.139l-37.093-34.223v48.982c0 1.684-.943 3.137-2.514 3.839zm-10.199 4.575l-34.901 15.64v26.593l38.405 43.235 32.599-39.628V98.541zm-104.594-32.688l22.482 23.267c1.442 1.506 1.578 3.886.267 5.535l-23.063 29 41.002-11.985c1.537-.45 3.244 0 4.276 1.234l16.367 18.394V94.799c0-1.684.943-3.191 2.473-3.839l30.673-13.825-30.762-14.248c-1.44-.655-2.384-2.175-2.384-3.792V11.17l-34.313 36.615c-.71.832-1.844 1.352-3.005 1.352zm-77.48 65.67l26.485 25.49 36.199-28.585 28.643-36.126-25.5-26.45h-65.826zm-38.043 72.83h48.072c1.612 0 3.053.974 3.777 2.467l14.25 30.679 13.813-30.68c.67-1.47 2.2-2.467 3.867-2.467h19.824l-18.349-16.267c-1.257-1.048-1.749-2.754-1.339-4.3l12.044-40.864-29.136 22.934c-1.578 1.323-3.962 1.213-5.492-.225l-23.287-22.456v23.915c0 1.193-.54 2.29-1.346 3.103zm45.373 8.398h-112.052l-16.238 34.843 16.272 35.969h111.97l16.19-35.969zm-96.32-47.435l40.242 37.515 40.291-37.515v-30.465l-40.202-46.046-40.331 46.221zm-7.057 4.876a4.123 4.123 0 0 1-1.394-3.103v-23.915l-23.342 22.456a4.208 4.208 0 0 1-5.527.225l-29.094-22.934 12.05 40.864c.41 1.546-.047 3.252-1.257 4.3l-18.437 16.267h19.872c1.626 0 3.15.996 3.866 2.468l13.807 30.679 14.216-30.68c.758-1.492 2.199-2.467 3.811-2.467h48.112zm-147.043 113.371v-17.814c0-1.214.499-2.351 1.394-3.17l12.774-11.283-14.21-11.684a4.154 4.154 0 0 1-1.536-3.26v-23.6h-23.65c-1.305 0-2.425-.567-3.237-1.527l-11.73-14.276-11.333 12.796a4.175 4.175 0 0 1-3.15 1.431h-17.897v17.841c0 1.077-.369 2.128-1.127 2.93l-15.425 15.736 15.11 12.768a4.124 4.124 0 0 1 1.442 3.165v19.947h20.002c1.216 0 2.439.56 3.244 1.507l12.727 15.053 15.822-15.327a4.05 4.05 0 0 1 2.93-1.233zm-16.094 8.412l-15.022 14.582 31.116 36.8V275.26zm-38.454 0h-18.027v43.146l29.996-29.122zm-26.388-89.218v-55.37l-20.282-24.61-60.936 22.749-11.6 30.766 31.384 26.465zm-51.494 8.419l36.874 31.121 14.62-14.964V194.46zm-13.034 0h-40.114l-16.955 34.707 18.035 37.68h48.563l34.49-35.245zm-18.172 112.794l15.425 35.115 35.161 15.392 32.114-31.188v-51.314h-51.406zm82.7-40.407v-17.97L1144.29 237l-29.135 29.847zm24.36-80.806l11.026-12.333-27.025-32.764v45.097zm33.37 1.595h21.628v-50.925l-33.002 37.175zm30.038 8.4v21.652l13.764 11.241 37.278-32.894zm60.579-8.4l23.513-20.813-14.434-48.757-48.837-14.296-20.821 23.493v60.373zm-59.002 63.3v15.911h45.23l-32.858-26.86zm0 85.617l26.574 31.352 30.85-11.553 22.755-60.852-24.73-20.241h-55.449zm58.503-69.706h29.272l16.723-35.969-15.691-34.843h-26.621l-43.393 38.294zm-12.59-191.26l28.548 36.125 36.288 28.586 26.491-25.491v-65.67h-65.873zm-80.636 1.548l30.672 13.825c1.53.648 2.474 2.155 2.474 3.839v19.783l16.326-18.394c1.08-1.234 2.787-1.73 4.358-1.234l40.927 11.985-23.07-29.041c-1.263-1.657-1.168-4.015.314-5.494l22.435-23.267h-23.917c-1.168 0-2.295-.52-3.108-1.352L1246.14 11.17v47.925c0 1.617-.943 3.137-2.426 3.792zm-46.261 21.406v29.124l32.64 39.628 38.357-43.235V97.464l-34.846-15.64zm-103.74-53.066l30.891 31.66c1.128 1.212 1.49 2.945.943 4.397l-13.8 36.868 56.926-21.25c1.666-.648 3.593-.177 4.72 1.254l15.699 19.056V95.849c0-1.61.942-3.185 2.425-3.812l31.922-14.787-31.833-14.316c-1.572-.702-2.514-2.155-2.514-3.839V10.113l-37.1 34.223c-.766.737-1.887 1.14-2.932 1.14zm-57.068 57.06l30.584 32.445 34.129-12.674 15.376-41.176-34.805-35.655h-45.284zm-40.332 85.101h48.748c1.612 0 3.054.907 3.778 2.38l14.031 29.464 15.2-31.053c.67-1.411 2.152-2.386 3.764-2.386h32.79l-25.993-21.938c-1.394-1.187-1.886-3.068-1.257-4.684l10.021-26.702-29.9 11.104c-1.53.566-3.32.205-4.495-1.029l-26.355-28.053v39.868c0 1.309-.67 2.522-1.653 3.285zm46.098 8.4H905.562l-15.783 33.131 17.898 36.643h50.316c.225 0 .358.157.631.225.226-.068.403-.225.629-.225h50.312l17.857-36.643zM919.727 152.5l38.897 29.955 38.897-29.955v-46.693l-38.897-41.21-38.897 41.21zm-6.742 5.392a4.076 4.076 0 0 1-1.667-3.285V114.74l-26.348 28.053c-1.127 1.234-2.972 1.595-4.543 1.029l-29.904-11.104 10.073 26.702c.629 1.616.133 3.497-1.216 4.684l-26.034 21.938h32.828c1.57 0 3.01.975 3.733 2.386l15.152 31.053 14.075-29.465c.717-1.472 2.156-2.379 3.778-2.379h48.697zM750.469 266.847V246.9c0-1.214.498-2.339 1.486-3.165l15.11-12.768-15.472-15.735a4.44 4.44 0 0 1-1.124-2.931V194.46h-17.85a4.312 4.312 0 0 1-3.19-1.431l-11.288-12.796-11.737 14.276a4.243 4.243 0 0 1-3.282 1.526h-23.65v23.602a4.158 4.158 0 0 1-1.53 3.259l-14.298 11.684 12.856 11.282a4.137 4.137 0 0 1 1.442 3.171v17.814h17.85c1.124 0 2.118.442 2.924 1.233l15.831 15.327 12.724-15.053a4.248 4.248 0 0 1 3.237-1.507zm-17.983 8.412l-11.917 14.05 29.9 29.096v-43.146zm-38.446 0h-16.098v51.382l31.116-36.8zm-22.933-87.623v-60.373L650.24 103.77l-48.833 14.296-14.39 48.757 23.52 20.813zm-51.08 8.4l37.274 32.893 13.806-11.241v-21.653zm-12.683 0h-26.622l-15.69 34.842 16.726 35.969h29.272l39.706-32.518zm-17.99 99.464l22.755 60.851 30.846 11.554 26.53-31.352v-61.294h-55.443zm80.13-28.653v-15.912l-12.364-10.949-32.869 26.861zm31.657-79.21l11.333-13.75-33.002-37.176v50.925zm33.37-1.596h15.958v-45.097l-26.932 32.764zm24.371 8.419v16.157l14.612 14.964 36.83-31.121zm61.423-8.419l31.387-26.465-11.556-30.766-61.02-22.749-20.234 24.61v55.37zM772.91 237l-14.028 11.876v17.971h43.21zm-14.028 89.573l32.062 31.188 35.209-15.392 15.38-35.115-31.3-31.995h-51.351zm54.991-59.726h48.567l17.987-37.68-16.91-34.707h-40.11l-44.069 37.142zM831.235 81.13l15.419 41.176 34.087 12.674 30.577-32.445v-57.06h-45.325zm-106.707-3.88l31.925 14.787c1.486.627 2.429 2.202 2.429 3.812v21.61l15.65-19.055c1.165-1.43 3.01-1.902 4.766-1.254l56.927 21.25-13.806-36.868c-.536-1.452-.225-3.185.899-4.397l30.935-31.66h-55.398c-1.035 0-2.11-.402-2.831-1.139l-37.142-34.223v48.982c0 1.684-.943 3.137-2.521 3.839zm-10.166 4.575l-34.89 15.64v26.593l38.398 43.235 32.6-39.628V98.541zm-104.59-32.688l22.482 23.267c1.438 1.506 1.53 3.886.27 5.535l-23.069 29 40.967-11.985c1.571-.45 3.238 0 4.317 1.234l16.368 18.394V94.799c0-1.684.899-3.191 2.473-3.839l30.669-13.825-30.761-14.248c-1.482-.655-2.381-2.175-2.381-3.792V11.17l-34.31 36.615a4.199 4.199 0 0 1-3.057 1.352zm-77.476 65.67l26.485 25.49 36.24-28.585 28.599-36.126-25.495-26.45h-65.829zm-38.087 72.83h48.115c1.616 0 3.057.974 3.774 2.467l14.254 30.679 13.806-30.68c.72-1.47 2.203-2.467 3.866-2.467h19.832l-18.39-16.267c-1.26-1.048-1.708-2.754-1.305-4.3l12.05-40.864-29.094 22.934c-1.619 1.323-4.003 1.213-5.533-.225l-23.288-22.456v23.915c0 1.193-.499 2.29-1.35 3.103zm45.366 8.398H427.522l-16.142 34.843 16.23 35.969h111.924l16.275-35.969zm-96.27-47.435l40.288 37.515 40.25-37.515v-30.465L483.64 72.089l-40.335 46.221zm-7.108 4.876a4.254 4.254 0 0 1-1.35-3.103v-23.915l-23.331 22.456c-1.53 1.438-3.867 1.548-5.489.225l-29.138-22.934 12.05 40.864c.41 1.546-.045 3.252-1.257 4.3l-18.438 16.267h19.875c1.62 0 3.146.996 3.87 2.468l13.759 30.679L421 190.103c.765-1.492 2.203-2.467 3.822-2.467h48.072zM289.205 266.847v-17.814c0-1.214.492-2.351 1.394-3.17l12.812-11.283-14.253-11.684a4.148 4.148 0 0 1-1.53-3.26v-23.6h-23.654c-1.301 0-2.428-.567-3.234-1.527L249 180.233l-11.33 12.796c-.805.9-1.977 1.431-3.145 1.431h-17.898v17.841a4.423 4.423 0 0 1-1.124 2.93l-15.469 15.736 15.155 12.768a4.134 4.134 0 0 1 1.438 3.165v19.947h19.964c1.302 0 2.473.56 3.283 1.507l12.771 15.053 15.787-15.327a4.016 4.016 0 0 1 2.92-1.233zm-16.1 8.412l-15.019 14.582 31.12 36.8V275.26zm-38.447 0h-18.031v43.146l29.948-29.122zm-26.44-89.218v-55.37l-20.238-24.61-60.972 22.749-11.603 30.766 31.43 26.465zm-51.443 8.419l36.872 31.121 14.57-14.964V194.46zm-13.082 0h-40.069l-16.951 34.707 17.99 37.68h48.607l34.488-35.245zm-18.126 112.794l15.424 35.115 35.164 15.392 32.063-31.188v-51.314h-51.35zm82.65-40.407v-17.97L194.19 237l-29.187 29.847zm24.419-80.806l10.971-12.333-26.98-32.764v45.097zM266 187.636h21.628v-50.925l-33.005 37.175zm30.085 8.4v21.652l13.714 11.241 37.278-32.894zm60.477-8.4l23.52-20.813-14.343-48.757-48.88-14.296-20.774 23.493v60.373zm-58.95 63.3v15.911h45.236l-32.824-26.86zm0 85.617l26.532 31.352 30.888-11.553 22.755-60.852-24.685-20.241h-55.49zm58.458-69.706h29.32l16.682-35.969-15.65-34.843h-26.666L316.36 234.33zm-12.545-191.26l28.595 36.125 36.202 28.586 26.526-25.491v-65.67h-65.87zm-80.671 1.548L293.56 90.96a4.154 4.154 0 0 1 2.524 3.839v19.783l16.275-18.394c1.083-1.234 2.79-1.73 4.362-1.234l40.923 11.985-23.07-29.041c-1.26-1.657-1.167-4.015.315-5.494l22.437-23.267h-23.968c-1.12 0-2.295-.52-3.053-1.352L296.085 11.17v47.925c0 1.617-.994 3.137-2.477 3.792zM216.627 98.54v29.124l32.643 39.628 38.358-43.235V97.464l-34.85-15.64zM112.843 45.475l30.94 31.66c1.123 1.212 1.481 2.945.942 4.397L130.922 118.4l56.925-21.25c1.663-.648 3.596-.177 4.72 1.254l15.65 19.056V95.849c0-1.61.991-3.185 2.474-3.812l31.926-14.787-31.834-14.316c-1.575-.702-2.565-2.155-2.565-3.839V10.113L171.12 44.336c-.721.737-1.8 1.14-2.88 1.14zm-57.02 57.06l30.532 32.445 34.133-12.674 15.425-41.176-34.806-35.655H55.822zM82.04 219.48l15.2-31.053c.672-1.411 2.158-2.386 3.73-2.386h32.827l-26.038-21.938c-1.39-1.187-1.888-3.068-1.256-4.684l10.069-26.702-29.9 11.104a4.31 4.31 0 0 1-4.547-1.029L55.822 114.74v39.868c0 1.309-.669 2.522-1.663 3.285l-38.672 29.744h48.7c1.623 0 3.109.906 3.822 2.38zm-25.18 88.311v50.176l36.469-35.123a4.122 4.122 0 0 1 4.72-.756l31.386 14.874-12.682-28.918c-.67-1.595-.359-3.389.813-4.629l27.516-28.156H102.05c-1.615 0-3.053-.913-3.777-2.4L81.996 238.82 65.9 271.878a4.315 4.315 0 0 1-3.822 2.332H20.434l34.985 30.398c.858.832 1.442 1.97 1.442 3.183zm95.644 78.44l-17.898-37.508-37.544-17.82L56.86 369.65v56.734h56.791zm92.27 15.039l-34.13-16.246c-1.437-.702-2.427-2.154-2.427-3.79v-42.929l-28.196 27.42c-1.213 1.234-3.01 1.547-4.628.859l-29.006-12.653 14.974 31.339c.673 1.554.451 3.457-.765 4.739l-35.253 36.376h50.316c1.216 0 2.384.506 3.15 1.405l30.487 34.952v-41.64c0-1.589.942-3.076 2.337-3.783zm44.43-21.624v-40.038l-37.189-43.87-35.39 34.386v48.458l37.77 18.02zm79.861 47.763l-28.059-26.323c-1.216-1.166-1.667-2.958-1.038-4.485l11.155-29.793-26.803 9.962a4.243 4.243 0 0 1-4.723-1.222l-21.986-26v32.757a4.2 4.2 0 0 1-2.337 3.75L264.111 401.2l29.542 14.024c1.438.702 2.432 2.202 2.432 3.77v48.553l29.767-38.504a4.225 4.225 0 0 1 3.327-1.635zm69.475-45.234l-35.707-34.708-41.275 15.408-12.686 33.999 32.466 30.535h57.202zm35.386-106.916h-49.104c-1.619 0-3.104-.982-3.822-2.467l-14.345-31.817-14.749 31.864c-.717 1.438-2.203 2.42-3.87 2.42h-21.672l19.113 15.639c1.346 1.146 1.89 3.054 1.302 4.71l-21.313 56.864 36.875-13.799c1.571-.523 3.235-.204 4.406.935l31.793 30.854v-55.308c0-1.077.358-2.066 1.123-2.89zm46.223 41.53l-36.557-39.56-36.647 39.56v61.861l36.647 35.567 36.557-35.567zm7.333-4.526c.673.825 1.127 1.814 1.127 2.891v55.308l31.787-30.854c1.123-1.139 2.831-1.458 4.41-.935l36.87 13.799-21.316-56.864c-.584-1.656-.045-3.564 1.304-4.71l19.11-15.64h-21.668c-1.667 0-3.152-.98-3.914-2.42l-14.704-31.863-14.39 31.817c-.718 1.485-2.16 2.467-3.775 2.467h-49.147zm90.836 84.61l-12.73-33.998-41.278-15.408-35.7 34.708v45.234h57.15zm84.666 4.329l-31.113-15.147c-1.486-.717-2.387-2.176-2.387-3.75v-32.73l-21.987 25.973c-1.123 1.371-3.012 1.848-4.72 1.222l-26.803-9.962 11.2 29.793c.585 1.527.133 3.32-1.035 4.485l-28.062 26.323h39.84c1.352 0 2.565.606 3.374 1.635l29.815 38.504v-48.553c0-1.568.899-3.068 2.381-3.77zm9.717-4.6l37.767-18.02v-48.458l-35.385-34.386-37.142 43.87v40.038zm129.054 29.783l-35.254-36.376a4.273 4.273 0 0 1-.676-4.74l14.886-31.338-29.006 12.653c-1.616.688-3.374.375-4.628-.859l-28.196-27.42v42.93c0 1.635-.943 3.087-2.429 3.79L722.37 401.27l33.097 16.049c1.435.708 2.38 2.194 2.38 3.783v41.64l30.486-34.952c.724-.9 1.933-1.405 3.197-1.405zm68.483-56.734l-40.203-38.749-37.588 17.821-17.81 37.509 38.853 40.153h56.748zm36.468-95.441h-41.684c-1.616 0-3.102-.922-3.777-2.332l-16.098-33.057-16.28 34.038c-.72 1.487-2.158 2.4-3.777 2.4h-43.034l27.48 28.156c1.168 1.24 1.482 3.074.85 4.629l-12.676 28.918 31.383-14.874a4.123 4.123 0 0 1 4.72.756l36.425 35.123V307.79c0-1.212.584-2.351 1.527-3.183zm51.798 35.49l-39.88-34.645-39.933 34.646v56.365l39.932 38.463 39.881-38.423zm8.464-1.909v50.176l36.458-35.123a4.134 4.134 0 0 1 4.728-.756l31.43 14.874-12.726-28.918c-.683-1.595-.362-3.389.847-4.629l27.53-28.156h-43.078c-1.626 0-3.06-.913-3.777-2.4l-16.232-34.038-16.15 33.057c-.669 1.41-2.205 2.332-3.777 2.332h-41.684l34.942 30.398c.902.832 1.49 1.97 1.49 3.183zm95.638 78.44l-17.898-37.508-37.545-17.82-40.195 38.748v56.734h56.789zm92.229 15.039l-34.089-16.246a4.22 4.22 0 0 1-2.376-3.79v-42.929l-28.248 27.42c-1.21 1.234-3.006 1.547-4.624.859l-28.958-12.653 14.878 31.339c.765 1.554.458 3.457-.724 4.739l-35.208 36.376h50.23c1.264 0 2.432.506 3.197 1.405l30.488 34.952v-41.64c0-1.589.943-3.076 2.384-3.783zm44.471-21.624v-40.038l-37.19-43.87-35.385 34.386v48.458l37.77 18.02zm79.864 47.763l-28.015-26.323c-1.264-1.166-1.667-2.958-1.038-4.485l11.108-29.793-26.8 9.962c-1.714.626-3.552.15-4.678-1.222l-22.032-26v32.757a4.202 4.202 0 0 1-2.342 3.75l-31.11 15.146 29.49 14.024c1.442.702 2.385 2.202 2.385 3.77v48.553l29.818-38.504c.806-1.029 1.974-1.635 3.326-1.635zm69.474-45.234l-35.707-34.708-41.275 15.408-12.733 33.999 32.51 30.535h57.205zm35.434-106.916h-49.158c-1.612 0-3.1-.982-3.811-2.467l-14.353-31.817-14.742 31.864c-.724 1.438-2.213 2.42-3.873 2.42h-21.717l19.114 15.639c1.394 1.146 1.886 3.054 1.346 4.71l-21.314 56.864 36.868-13.799c1.578-.523 3.245-.204 4.413.935l31.793 30.854v-55.308c0-1.077.348-2.066 1.12-2.89zm46.18 41.53l-36.61-39.56-36.601 39.56v61.861l36.601 35.567 36.61-35.567zm7.377-4.526c.622.825 1.08 1.814 1.08 2.891v55.308l31.778-30.854c1.182-1.139 2.835-1.458 4.373-.935l36.915 13.799-21.313-56.864c-.587-1.656-.048-3.564 1.352-4.71l19.02-15.64h-21.677c-1.578 0-3.108-.98-3.866-2.42l-14.756-31.863-14.339 31.817c-.724 1.485-2.165 2.467-3.777 2.467h-49.11zm90.74 84.61l-12.68-33.998-41.288-15.408-35.693 34.708v45.234h57.15zm84.762 4.329l-31.123-15.147c-1.53-.717-2.425-2.176-2.425-3.75v-32.73l-21.983 25.973c-1.134 1.371-3.02 1.848-4.728 1.222l-26.792-9.962 11.19 29.793c.628 1.527.13 3.32-1.032 4.485l-28.104 26.323h39.881c1.305 0 2.562.606 3.375 1.635l29.812 38.504v-48.553c0-1.568.853-3.068 2.383-3.77z"/></g></g></svg>