<svg xmlns="http://www.w3.org/2000/svg" width="34" height="34" viewBox="0 0 68 68"><g><g><path fill="#05585e" d="M.02 34.07C.02 15.316 15.274.06 34.023.06c18.75 0 34.003 15.256 34.003 34.01 0 4.895-1.017 9.618-3.023 14.04-.26.575-.934.826-1.51.57a1.142 1.142 0 0 1-.568-1.51 31.503 31.503 0 0 0 2.82-13.1c0-17.495-14.23-31.727-31.722-31.727-17.491 0-31.722 14.232-31.722 31.727 0 17.498 14.23 31.731 31.722 31.731 9.63 0 14.929-3.807 16.676-7.373 1.087-2.217.903-4.533-.505-6.35-.58-.769-1.997-2.598-3.613-4.29a1.14 1.14 0 0 1 1.65-1.576c1.698 1.777 3.18 3.692 3.737 4.43 1.991 2.572 2.264 5.763.78 8.792-2.05 4.181-8.046 8.649-18.725 8.649C15.273 68.083.02 52.826.02 34.07zm34.003 2.15c-4.2 0-7.617-3.42-7.617-7.619 0-4.204 3.417-7.621 7.617-7.621s7.617 3.417 7.617 7.621c0 4.2-3.417 7.62-7.617 7.62zm0-12.959a5.343 5.343 0 0 0-5.336 5.34 5.341 5.341 0 0 0 5.336 5.335 5.342 5.342 0 0 0 5.336-5.335 5.343 5.343 0 0 0-5.336-5.34zm0 32.094c-.337 0-.658-.15-.874-.41-.61-.728-14.932-17.924-14.932-26.344 0-8.72 7.09-15.815 15.806-15.815S49.83 19.881 49.83 28.601c0 8.42-14.322 25.616-14.931 26.344a1.14 1.14 0 0 1-.875.41zm0-40.286c-7.457 0-13.524 6.07-13.524 13.532 0 6.487 10.402 19.923 13.524 23.807 3.122-3.884 13.525-17.32 13.525-23.807 0-7.463-6.067-13.532-13.525-13.532z"/></g></g></svg>