<?xml version="1.0" encoding="UTF-8"?> <svg xmlns="http://www.w3.org/2000/svg" width="75.5" height="96" viewBox="0 0 151 192"><g><g><path fill="#05585e" d="M87.515 149.027H87.5c-2.964-.009-5.36-2.425-5.352-5.397a5.375 5.375 0 0 1 5.382-5.367c2.965.009 5.36 2.424 5.352 5.397-.016 2.962-2.412 5.358-5.367 5.367zm2.352-5.367v-.014a2.355 2.355 0 0 0-2.352-2.36 2.355 2.355 0 0 0-2.352 2.358 2.355 2.355 0 0 0 2.352 2.359 2.354 2.354 0 0 0 2.352-2.343zm1.508 8.767a1.512 1.512 0 0 1 .814-2.025 4.08 4.08 0 0 1 5.352 2.13c.449 1 .486 2.134.105 3.16a4.102 4.102 0 0 1-2.17 2.297c-.195.09-.406.136-.619.137a1.508 1.508 0 0 1-1.365-.885 1.515 1.515 0 0 1 .747-2.003c.27-.121.48-.344.588-.62a1.166 1.166 0 0 0 0-.846 1.13 1.13 0 0 0-.618-.589 1.15 1.15 0 0 0-.844 0 1.507 1.507 0 0 1-1.99-.756zm59.353-56.336c.096 28.116-16.733 53.51-42.62 64.317l8.172 15.796c.132.238.214.5.24.77h9.484c3.266.042 5.906 2.682 5.955 5.956v3.024c0 3.31-2.654 6.005-5.955 6.046H14.639c-3.3-.041-5.955-2.737-5.955-6.046v-3.024c.05-3.274 2.69-5.914 5.955-5.956h55.313v-12.183h-11.85v.727c0 4.534-14.322 4.881-20.487 4.881-6.166 0-20.503-.468-20.503-4.881v-5.563c.002-.208.043-.413.12-.605 1.267-3.84 14.518-4.278 20.383-4.278 5.864 0 19.116.439 20.367 4.278.077.192.118.397.12.605v1.858h11.865v-3.249h-4.523a1.51 1.51 0 0 1-1.507-1.511 1.51 1.51 0 0 1 1.507-1.513h4.523v-17.382l-21.106-9.63H21.514a1.51 1.51 0 0 1-1.508-1.51 1.51 1.51 0 0 1 1.508-1.512h60.65v-3.824H3v3.824h9.045a1.51 1.51 0 0 1 1.508 1.511 1.51 1.51 0 0 1-1.508 1.512H1.493a1.51 1.51 0 0 1-1.507-1.512v-6.847a1.51 1.51 0 0 1 1.507-1.512h82.148a1.51 1.51 0 0 1 1.507 1.512v1.194c9.965-2.392 17.565-10.482 19.35-20.598 2.476-14.032-6.862-27.421-20.857-29.903a7.801 7.801 0 0 1-1.615 3.498 7.765 7.765 0 0 1-10.943 1.127h-6.211a1.51 1.51 0 0 1-1.508-1.511 1.51 1.51 0 0 1 1.508-1.513h3.859a8.069 8.069 0 0 1-.573-2.554H58.103v2.554h2.352a1.51 1.51 0 0 1 1.507 1.513 1.51 1.51 0 0 1-1.507 1.511h-2.217v5.048l1.87.576A1.51 1.51 0 0 1 61.103 83l-1.644 5.38a1.507 1.507 0 0 1-1.507 1.058 1.322 1.322 0 0 1-.437 0l-6.332-1.949v3.643a3.14 3.14 0 0 1 3.015 3.13v2.432a3.125 3.125 0 0 1-3.12 3.13h-.92v7.467a1.51 1.51 0 0 1-1.508 1.51H36.906a1.51 1.51 0 0 1-1.507-1.51v-7.468h-.92a3.125 3.125 0 0 1-3.12-3.129v-2.433a3.14 3.14 0 0 1 3.014-3.13v-8.826L30.71 81.17l-4.13 6.667.783.484a3.132 3.132 0 0 1 .98 4.276l-1.281 2.057a3.116 3.116 0 0 1-2.654 1.51 2.993 2.993 0 0 1-1.643-.467l-.769-.484-3.935 6.334c-.44.7-1.36.918-2.065.484l-9.98-6.213a1.51 1.51 0 0 1-.679-.938c-.09-.393-.02-.807.196-1.148l3.92-6.334-.769-.484a3.134 3.134 0 0 1-1.01-4.308l1.267-2.055a3.146 3.146 0 0 1 4.311-1.013l.784.5 2.08-3.372-2.17-.665a1.512 1.512 0 0 1-.995-1.89l1.658-5.38a1.51 1.51 0 0 1 .724-.892c.357-.19.775-.229 1.16-.106l12.528 3.87V14.027a1.51 1.51 0 0 1 1.508-1.511h2.08v-6.53a1.51 1.51 0 0 1 1.508-1.512h18.875a1.51 1.51 0 0 1 1.507 1.512v6.53h2.126a1.51 1.51 0 0 1 1.508 1.511v9.57a15.886 15.886 0 0 1 3.904-.515 15.306 15.306 0 0 1 10.04 3.779 69.043 69.043 0 0 1 38.037 5.743 1.513 1.513 0 0 1-.618 2.888c-.22.002-.438-.05-.633-.15a65.593 65.593 0 0 0-22.976-5.867c28.495 20.324 41.326 56.305 32.142 90.135a80.38 80.38 0 0 1-2.443 7.559 83.667 83.667 0 0 1-12.965 22.674l4.086 7.875a66.691 66.691 0 0 0 30.401-25.568c19.883-31.06 10.888-72.4-20.09-92.335a1.514 1.514 0 0 1-.428-1.975 1.506 1.506 0 0 1 2.057-.564c20.022 12.812 32.124 34.998 32.08 58.815zM37.615 158.096c-9 0-14.639 1.043-16.72 1.828 2.126.816 7.78 1.86 16.765 1.86s14.623-1.044 16.75-1.86c-2.127-.816-7.705-1.86-16.75-1.86zm17.472 4.746c-4.537 1.754-13.07 1.995-17.472 1.995-4.402 0-12.965-.241-17.488-1.995v2.373c1.206.832 7.176 2.176 17.533 2.176 10.357 0 16.251-1.375 17.473-2.206zm6.95-136.737h-.045c-6.86.008-12.416 5.592-12.407 12.47.008 6.879 5.576 12.45 12.437 12.441 6.86-.009 12.416-5.592 12.408-12.471-.017-6.858-5.553-12.415-12.393-12.44zm-26.413-13.59h15.86V7.498h-15.86zm-16.19 81.037l-7.418-4.535-3.136 5.048 7.417 4.626zm6.346-2.57v-.152l-2.065-1.27-9.98-6.212-2.05-1.285a.12.12 0 0 0-.166 0l-1.267 2.057v.15l12.06 7.558 2.051 1.285a.124.124 0 0 0 .15 0zm1.945-10.732l-8.623-2.662-2.503 4.037 7.417 4.625zm19.372 19.574h-8.729v5.956h8.73zm4.04-5.562a.106.106 0 0 0-.105-.105H34.45a.106.106 0 0 0-.106.105v2.449c0 .058.048.105.106.105h16.583a.106.106 0 0 0 .106-.105zm-3.045-7.71l-10.719-3.31v7.907h10.75zm9.588-2.916L17.067 71.074l-.77 2.495 40.615 12.545zm-2.593-3.976V52.362a15.42 15.42 0 0 1-6.896-6.917c-3.797-7.625-.71-16.893 6.896-20.7V15.54h-23.02v56.97zm25.644-10.264v-.015a4.815 4.815 0 0 0-4.824-4.806 4.816 4.816 0 0 0-4.794 4.837 4.815 4.815 0 0 0 4.824 4.806 4.816 4.816 0 0 0 4.794-4.822zM72.982 176.93H76.3v-34.767c0-5.843 4.725-10.58 10.553-10.58a10.309 10.309 0 0 1 9.181 5.577l5.066 9.78a81.137 81.137 0 0 0 11.668-20.844c.844-2.373 1.689-4.808 2.352-7.24 9.326-34.296-4.844-70.67-34.885-89.547-1.885.03-3.77.136-5.639.317a15.481 15.481 0 0 1 2.849 8.979c-.016 8.531-6.928 15.435-15.437 15.419a15.888 15.888 0 0 1-3.904-.514v13.378h10.462a7.809 7.809 0 0 1 3.709-4.37v-6.44a1.51 1.51 0 0 1 1.507-1.51 1.51 1.51 0 0 1 1.508 1.51v5.489h.648a7.829 7.829 0 0 1 7.644 6.227c11.797 1.825 21.24 10.773 23.724 22.478 3.302 15.564-6.604 30.865-22.126 34.176v2.54a1.51 1.51 0 0 1-1.508 1.51H56.128l15.905 7.272c.54.243.888.78.889 1.374zm55.961 6.046l.001-.091a2.929 2.929 0 0 0-2.94-2.917H14.624a2.928 2.928 0 0 0-2.925 2.933v3.023a3.02 3.02 0 0 0 2.94 3.022h111.35a2.925 2.925 0 0 0 2.789-2.054h-6.438a1.51 1.51 0 0 1-1.507-1.513 1.51 1.51 0 0 1 1.507-1.511h6.558v-.892zm-15.648-5.956l-19.96-38.363a7.279 7.279 0 0 0-6.498-3.961c-4.163 0-7.538 3.384-7.538 7.558v34.766h2.864v-2.57a1.51 1.51 0 0 1 1.508-1.51 1.51 1.51 0 0 1 1.508 1.51v2.57zm27.347-69.486a1.51 1.51 0 0 1 1.161 1.768 62.14 62.14 0 0 1-1.508 6.046 1.508 1.508 0 0 1-1.507 1.059 1.568 1.568 0 0 1-.452-.076l-.008-.003a1.512 1.512 0 0 1-.972-1.902c.603-1.86 1.1-3.794 1.507-5.713v-.002a1.506 1.506 0 0 1 1.78-1.177zm2.548-10.325a1.51 1.51 0 0 1-1.508 1.512 1.51 1.51 0 0 1-1.507-1.512 57.023 57.023 0 0 0-3.015-18.138 1.51 1.51 0 1 1 2.864-.967 60.048 60.048 0 0 1 3.015 19.075zM32.61 1.51a1.51 1.51 0 0 1 1.507-1.51h18.875a1.51 1.51 0 0 1 1.507 1.51 1.51 1.51 0 0 1-1.507 1.511H34.117a1.51 1.51 0 0 1-1.508-1.51zM62.036 46.39c-4.33.008-7.846-3.503-7.854-7.845 0-4.321 3.485-7.829 7.794-7.844 4.321-.017 7.838 3.481 7.854 7.814.017 4.333-3.472 7.858-7.794 7.875zm-.015-12.651a4.815 4.815 0 0 0-4.824 4.806 4.816 4.816 0 0 0 4.779 4.837 4.815 4.815 0 0 0 4.84-4.792 4.815 4.815 0 0 0-4.78-4.851h-.015zM38.64 113.61a1.51 1.51 0 0 1-1.508-1.511 1.51 1.51 0 0 1 1.508-1.513h8.186a1.51 1.51 0 0 1 1.507 1.513 1.51 1.51 0 0 1-1.507 1.511zm46.539 46.087v7.785a1.51 1.51 0 0 1-1.508 1.512 1.51 1.51 0 0 1-1.507-1.512v-7.785a1.51 1.51 0 0 1 1.507-1.511 1.51 1.51 0 0 1 1.508 1.511zm28.689 24.171a1.51 1.51 0 0 1 1.507 1.511 1.51 1.51 0 0 1-1.507 1.513h-11.02a1.51 1.51 0 0 1-1.508-1.513 1.51 1.51 0 0 1 1.507-1.511zM52.992 58.362a1.51 1.51 0 0 1-1.508 1.511h-4.658a1.51 1.51 0 0 1-1.508-1.511 1.51 1.51 0 0 1 1.508-1.511h4.658a1.51 1.51 0 0 1 1.508 1.51zm-7.674-37.487a1.51 1.51 0 0 1 1.508-1.511h4.658a1.51 1.51 0 0 1 1.508 1.51 1.51 1.51 0 0 1-1.508 1.512h-4.658a1.51 1.51 0 0 1-1.508-1.511zm7.674 44.032a1.51 1.51 0 0 1-1.508 1.511h-4.658a1.51 1.51 0 0 1-1.508-1.51 1.51 1.51 0 0 1 1.508-1.513h4.658a1.51 1.51 0 0 1 1.508 1.512zm0 6.546a1.51 1.51 0 0 1-1.508 1.51h-4.658a1.51 1.51 0 0 1-1.508-1.51 1.51 1.51 0 0 1 1.508-1.513h4.658a1.51 1.51 0 0 1 1.508 1.513z"></path></g></g></svg> 