<?xml version="1.0" encoding="UTF-8"?> <svg xmlns="http://www.w3.org/2000/svg" width="96" height="84.5" viewBox="0 0 192 169"><g><g><path fill="#05585e" d="M191.454 132.726c-1.671 4.706-6.834 7.163-11.531 5.49l-8.48 14.7a9.06 9.06 0 0 1 3.051 5.282c.9 4.921-2.355 9.64-7.269 10.54-4.912.901-9.623-2.36-10.522-7.28h-16.977a9.057 9.057 0 0 1-3.052 5.283 9.033 9.033 0 0 1-12.746-1.059c-3.227-3.818-2.754-9.535 1.058-12.767l-8.529-14.7a8.967 8.967 0 0 1-1.55.415c-4.895.854-9.553-2.428-10.406-7.33H87.492a9.04 9.04 0 0 1-.415 1.554c-1.709 4.672-6.876 7.072-11.54 5.361l-8.48 14.7a9.095 9.095 0 0 1 3.26 7.002c-.013 5.02-4.086 9.08-9.099 9.069-5.013-.013-9.066-4.094-9.053-9.114.012-5.022 4.086-9.081 9.098-9.068 1.044 0 2.079.185 3.057.548l8.465-14.716a9.193 9.193 0 0 1-1.062-1.064c-3.226-3.82-2.75-9.536 1.062-12.766l-8.465-14.718a8.77 8.77 0 0 1-3.057.548 9.063 9.063 0 0 1-8.898-7.527H35.388a9.063 9.063 0 0 1-8.899 7.463 8.68 8.68 0 0 1-3.041-.548l-8.48 14.716a9.053 9.053 0 0 1 2.68 9.939c-1.672 4.706-6.835 7.163-11.532 5.489-4.697-1.674-7.15-6.845-5.48-11.551 1.672-4.705 6.834-7.162 11.531-5.488l8.48-14.7a9.16 9.16 0 0 1-1.053-1.056c-3.235-3.823-2.763-9.55 1.054-12.79l-8.48-14.7a9.063 9.063 0 0 1-3.16.546c-5.002-.032-9.032-4.12-9-9.133.033-5.012 4.115-9.049 9.119-9.016 1.04.009 2.07.206 3.041.58l8.48-14.716a9.06 9.06 0 0 1-3.058-5.306c-.888-4.923 2.376-9.636 7.291-10.525 4.915-.889 9.62 2.38 10.508 7.303h16.944a9.064 9.064 0 0 1 8.899-7.463 9.053 9.053 0 0 1 6.897 3.218c3.23 3.829 2.75 9.553-1.072 12.79l8.529 14.667a8.736 8.736 0 0 1 3.057-.548 9.065 9.065 0 0 1 8.899 7.463h16.96a9.064 9.064 0 0 1 8.899-7.463 8.72 8.72 0 0 1 3.057.581l8.529-14.717a8.99 8.99 0 0 1-1.111-1.113c-3.2-3.819-2.702-9.512 1.111-12.717l-8.529-14.75a8.706 8.706 0 0 1-3.057.55 9.042 9.042 0 0 1-6.891-3.189c-3.237-3.81-2.777-9.526 1.026-12.77a9.034 9.034 0 0 1 12.749 1.03c3.236 3.81 2.777 9.527-1.027 12.769l8.465 14.716a9.16 9.16 0 0 1 3.057-.548 9.064 9.064 0 0 1 8.898 7.463h16.977a9.061 9.061 0 0 1 3.06-5.306 9.033 9.033 0 0 1 12.744 1.066c3.226 3.82 2.75 9.535-1.064 12.767l8.48 14.716a8.712 8.712 0 0 1 3.042-.548c4.997-.008 9.058 4.037 9.076 9.043.017 5.013-4.025 9.09-9.028 9.106-5.003.019-9.074-4.03-9.092-9.042a9.033 9.033 0 0 1 3.202-6.915l-8.48-14.716a9.007 9.007 0 0 1-1.565.42c-4.886.844-9.531-2.44-10.375-7.335h-16.977a9.064 9.064 0 0 1-8.898 7.463 9.16 9.16 0 0 1-3.057-.548l-8.465 14.716c.383.325.738.68 1.061 1.063 3.227 3.82 2.752 9.535-1.06 12.767l8.464 14.7a9.186 9.186 0 0 1 3.057-.532 9.064 9.064 0 0 1 8.898 7.447h16.977a9.05 9.05 0 0 1 7.29-7.302c4.915-.89 9.62 2.38 10.508 7.302.89 4.923-2.375 9.636-7.29 10.527-4.914.89-9.62-2.38-10.508-7.304h-16.977a9.064 9.064 0 0 1-8.898 7.465 8.77 8.77 0 0 1-3.057-.55l-8.465 14.718c.383.324.738.68 1.061 1.063 3.227 3.818 2.752 9.535-1.06 12.767l8.464 14.716a8.803 8.803 0 0 1 3.057-.548 9.064 9.064 0 0 1 8.898 7.463h17.026a9.064 9.064 0 0 1 8.898-7.463c1.039 0 2.068.185 3.041.548l8.48-14.716a9.052 9.052 0 0 1-2.679-9.939c1.671-4.706 6.834-7.163 11.531-5.49 4.697 1.674 7.15 6.846 5.479 11.552zm-31.758-33.18a5.846 5.846 0 0 0 5.842 5.851 5.846 5.846 0 0 0 5.84-5.852c0-3.23-2.615-5.85-5.84-5.85h-.017a5.83 5.83 0 0 0-5.825 5.835v.015zm17.331-30.223a5.847 5.847 0 0 0 5.809 5.883 5.845 5.845 0 0 0 5.873-5.82h.049v-.03a5.846 5.846 0 0 0-5.841-5.852h-.016a5.847 5.847 0 0 0-5.874 5.819zm-17.315-30.094a5.863 5.863 0 0 0 5.874 5.852 5.846 5.846 0 0 0 5.84-5.852c0-3.23-2.614-5.85-5.84-5.85a5.846 5.846 0 0 0-5.841 5.85zM119.258 9.07c0-3.23-2.616-5.85-5.841-5.85a5.846 5.846 0 0 0-5.842 5.85 5.846 5.846 0 0 0 5.826 5.852h.016a5.847 5.847 0 0 0 5.84-5.852zm11.522 36.01a5.863 5.863 0 0 0 5.84-5.851c0-3.23-2.615-5.85-5.84-5.85a5.846 5.846 0 0 0-5.842 5.85 5.846 5.846 0 0 0 5.842 5.852zM14.952 129.689v-.017a5.847 5.847 0 0 0-5.858-5.835 5.846 5.846 0 0 0-5.825 5.867 5.846 5.846 0 0 0 5.858 5.835 5.862 5.862 0 0 0 5.825-5.85zm52.105 30.158v-.064a5.846 5.846 0 0 0-5.89-5.804 5.847 5.847 0 0 0-5.793 5.9 5.847 5.847 0 0 0 5.89 5.803 5.846 5.846 0 0 0 5.793-5.835zm57.833-60.285a5.847 5.847 0 0 0 5.857 5.836 5.848 5.848 0 0 0 5.826-5.867h.048a5.861 5.861 0 0 0-5.89-5.835h-.016a5.846 5.846 0 0 0-5.825 5.866zm-17.315-30.205v.015a5.846 5.846 0 0 0 5.858 5.835 5.846 5.846 0 0 0 5.825-5.868 5.847 5.847 0 0 0-5.857-5.834 5.863 5.863 0 0 0-5.826 5.852zm-34.822-.002a5.846 5.846 0 0 0 5.84 5.852 5.846 5.846 0 0 0 5.843-5.85l.032.03v-.015a5.846 5.846 0 0 0-5.825-5.867h-.048a5.846 5.846 0 0 0-5.842 5.85zM55.438 39.23a5.846 5.846 0 0 0 5.858 5.819h.016a5.846 5.846 0 0 0 5.841-5.85 5.846 5.846 0 0 0-5.841-5.853 5.846 5.846 0 0 0-5.841 5.852zm-34.758-.032v.016a5.846 5.846 0 0 0 5.858 5.835 5.846 5.846 0 0 0 5.825-5.868 5.847 5.847 0 0 0-5.857-5.835l-.016.033a5.861 5.861 0 0 0-5.81 5.82zm-5.712 30.159a5.847 5.847 0 0 0-5.857-5.837 5.848 5.848 0 0 0-5.826 5.868 5.861 5.861 0 0 0 5.842 5.835h.016a5.846 5.846 0 0 0 5.825-5.866zm17.363 30.11a5.846 5.846 0 0 0-5.841-5.853 5.847 5.847 0 0 0-5.842 5.852c0 3.23 2.616 5.85 5.842 5.85v.098c.032 0 .064 0 .097-.002a5.846 5.846 0 0 0 5.744-5.946zm28.933-8.996a9.187 9.187 0 0 1 3.057.532l8.448-14.7a8.988 8.988 0 0 1-1.061-1.063c-3.226-3.819-2.752-9.535 1.061-12.767l-8.464-14.716a8.713 8.713 0 0 1-3.041.548 9.065 9.065 0 0 1-8.9-7.463H35.389a9.057 9.057 0 0 1-.418 1.568c-1.708 4.664-6.866 7.056-11.522 5.347l-8.48 14.716c.383.325.737.68 1.061 1.063 3.226 3.82 2.751 9.535-1.061 12.767l8.48 14.7a8.948 8.948 0 0 1 1.462-.39c4.908-.881 9.6 2.39 10.478 7.305h16.977a9.065 9.065 0 0 1 8.899-7.447zm5.871 9.188a5.846 5.846 0 0 0-5.744-5.946 5.844 5.844 0 0 0-5.936 5.753l-.033.064v.032a5.846 5.846 0 0 0 5.842 5.852 5.846 5.846 0 0 0 5.871-5.755zm17.333 30.03v-.017a5.847 5.847 0 0 0-5.858-5.835 5.846 5.846 0 0 0-5.825 5.867 5.846 5.846 0 0 0 5.858 5.835 5.862 5.862 0 0 0 5.825-5.85zm31.99-8.528l8.529-14.7a9.02 9.02 0 0 1-1.104-1.106c-3.208-3.822-2.714-9.527 1.104-12.74l-8.53-14.7c-.47.17-.955.3-1.448.388-4.915.89-9.62-2.38-10.507-7.303h-17.01c-.088.494-.218.98-.387 1.452-1.688 4.708-6.867 7.154-11.568 5.463l-8.48 14.7c.398.336.768.707 1.103 1.106 3.208 3.823 2.714 9.528-1.103 12.74l8.528 14.7a8.968 8.968 0 0 1 1.551-.416c4.895-.854 9.553 2.428 10.405 7.331h16.96a9.06 9.06 0 0 1 .416-1.554c1.71-4.671 6.876-7.073 11.54-5.36zm2.832 8.528a5.846 5.846 0 0 0-5.841-5.852 5.846 5.846 0 0 0-5.841 5.852h-.033v.015a5.846 5.846 0 0 0 5.858 5.835h.016a5.845 5.845 0 0 0 5.84-5.85zm17.331 30.061a5.846 5.846 0 0 0-5.874-5.819 5.846 5.846 0 0 0-5.841 5.85 5.847 5.847 0 0 0 5.841 5.852 5.846 5.846 0 0 0 5.842-5.852l.032.066v-.097zm34.774.031c0-3.23-2.616-5.85-5.841-5.85v.064a5.846 5.846 0 0 0-5.842 5.786 5.846 5.846 0 0 0 5.842 5.852 5.847 5.847 0 0 0 5.84-5.852zm17.379-30.174a5.847 5.847 0 0 0-5.857-5.834v.064a5.862 5.862 0 0 0-5.826 5.788v.015a5.847 5.847 0 0 0 5.858 5.835 5.846 5.846 0 0 0 5.825-5.868z"></path></g></g></svg> 