<?xml version="1.0" encoding="UTF-8"?> <svg xmlns="http://www.w3.org/2000/svg" width="96" height="84.5" viewBox="0 0 192 169"><g><g><path fill="#05585e" d="M55.524 39.683c0 .85-.687 1.54-1.535 1.54a26.596 26.596 0 0 0-9.3 1.66c-.173.059-.354.09-.537.093a1.54 1.54 0 0 1-.537-2.985 29.796 29.796 0 0 1 10.374-1.847c.848 0 1.535.69 1.535 1.539zm-19.966 8.74a31.467 31.467 0 0 0-10.144 23.37c0 .849-.687 1.538-1.535 1.538-.847 0-1.534-.69-1.534-1.538a34.534 34.534 0 0 1 11.187-25.648h-.03a1.53 1.53 0 0 1 2.292.114c.53.662.424 1.631-.236 2.164zM192 97.117c0 .85-.687 1.538-1.535 1.538H171.82c-7.172 12.115-19.326 25.448-36.463 40.003a389.97 389.97 0 0 1-40.806 30.001 1.52 1.52 0 0 1-1.612 0 386.5 386.5 0 0 1-40.79-30.063C35 124.022 22.845 110.686 15.683 98.594H1.534A1.536 1.536 0 0 1 0 97.055c0-.849.687-1.538 1.535-1.538h12.4a46.877 46.877 0 0 1-5.678-17.493c-.03-.354-.307-5.294-.307-5.478 0-26.078 19.904-47.28 44.382-47.28 18.508 0 34.898 12.186 41.436 30.187a47.269 47.269 0 0 1 12.17-18.463 1.533 1.533 0 0 1 2.312.083c.533.66.432 1.63-.226 2.164a44.77 44.77 0 0 0-12.768 21.878 1.534 1.534 0 0 1-2.977 0c-4.835-19.278-21.24-32.74-39.901-32.74-22.775 0-41.313 19.832-41.313 44.203.015.354.291 4.8.291 5.168a45.535 45.535 0 0 0 6.139 17.801h21.823L51.764 67.64c.266-.6.882-.965 1.534-.909.624.026 1.17.428 1.382 1.016l22.912 63.296 7.965-34.34a1.535 1.535 0 0 1 1.534-1.185h9.5a1.534 1.534 0 0 1 1.35.8l8.073 14.662L121.222 1.435a1.536 1.536 0 1 1 3.07 0l15.407 94.112h11.019c.848 0 1.535.69 1.535 1.54 0 .849-.687 1.538-1.535 1.538h-12.277c-.76.01-1.413-.54-1.535-1.293l-13.965-85.389-14.457 104.068a1.538 1.538 0 0 1-1.227 1.293 1.535 1.535 0 0 1-1.627-.771l-9.868-17.908h-7.428l-9.039 38.172a1.536 1.536 0 0 1-1.396 1.184h-.092a1.536 1.536 0 0 1-1.443-1L53.038 72.362 41.712 97.717c-.247.551-.794.907-1.397.908h-21.04c19.444 31.124 67.632 62.541 74.477 66.912 6.86-4.37 55.048-35.803 74.384-66.912h-7.673c-.847 0-1.535-.69-1.535-1.538 0-.85.688-1.54 1.535-1.54h9.607a45.35 45.35 0 0 0 6.139-17.785c.046-.384.291-4.83.291-5.231 0-24.324-18.523-44.157-41.297-44.157a1.536 1.536 0 0 1-1.535-1.538c0-.85.687-1.538 1.535-1.538 24.416 0 44.366 21.124 44.366 47.28 0 .184-.306 5.122-.306 5.492a46.774 46.774 0 0 1-5.663 17.477h16.88l-.015.031c.848 0 1.535.69 1.535 1.539z"></path></g></g></svg> 