<?xml version="1.0" encoding="UTF-8"?> <svg xmlns="http://www.w3.org/2000/svg" width="81" height="96" viewBox="0 0 162 192"><g><g><path fill="#05585e" d="M122.658 109.63a1.511 1.511 0 0 1-1.51 1.04 1.505 1.505 0 0 1-1.436-1.973 40.75 40.75 0 0 0-3.611-33.152l-.499-.845-.003-.005c-11.254-19.225-36.005-25.712-55.283-14.49l-.846.407C39.83 71.915 14.783 66.297 1.887 47.7L.45 45.484a1.507 1.507 0 0 1 .446-2.088 1.515 1.515 0 0 1 2.093.446l1.405 2.184C16.431 63.336 39.778 68.53 58.049 57.96l.862-.407c20.712-11.988 47.246-4.999 59.32 15.626l.499.844a43.852 43.852 0 0 1 3.928 35.607zm38.379 39.238a1.518 1.518 0 0 1-.846.182 1.517 1.517 0 0 1-1.3-.754c-11.015-18.905-35.046-25.748-54.41-15.49l-1.662.738c-19.875 11.443-45.229 5.767-58.293-13.049l-1.435-2.246a43.752 43.752 0 0 1-5.953-19.83.421.421 0 0 1 0-.136 43.717 43.717 0 0 1 3.989-20.553 1.516 1.516 0 0 1 2.009-.738c.76.35 1.091 1.247.74 2.004A40.477 40.477 0 0 0 40.16 95.57l33.242-19.362a1.512 1.512 0 0 1 2.04.542c.425.716.188 1.64-.53 2.065L40.16 98.99a40.693 40.693 0 0 0 3.189 13.155l51.569-30.015a1.513 1.513 0 0 1 2.15.572 1.504 1.504 0 0 1-.64 2.033l-51.78 30.137c.317.618.635 1.221.982 1.81l1.39 2.138a39.656 39.656 0 0 0 6.316 7.188l27.47-15.912a1.514 1.514 0 0 1 2.054.542c.426.717.19 1.64-.528 2.065l-26.503 15.234c13.2 10.014 31.143 11.137 45.495 2.848h.152l1.647-.693c20.825-11.015 46.656-3.623 58.459 16.726.412.715.17 1.63-.544 2.05zm-26.73 5.816l-50.33 29.308a44.767 44.767 0 0 0 2.844 5.73c.42.72.175 1.642-.547 2.06-.23.131-.49.198-.755.197a1.511 1.511 0 0 1-1.3-.74c-8.068-13.77-8.748-31.733-1.692-44.722a1.531 1.531 0 0 1 2.085-.572c.734.416.992 1.347.574 2.079a38.499 38.499 0 0 0-4.366 15.28l23.238-13.562a1.514 1.514 0 0 1 1.976.526c.448.704.24 1.634-.465 2.08L80.684 166.83c.001 4.85.766 9.67 2.266 14.285l49.862-29.037.004-.002a1.514 1.514 0 0 1 2.066.545l.008.014a1.505 1.505 0 0 1-.582 2.05zM78.07 41.55a1.51 1.51 0 0 1-1.375.875c-.221.001-.439-.05-.635-.152a1.505 1.505 0 0 1-.74-1.989 40.657 40.657 0 0 0 3.61-13.275L53.246 41.927a1.514 1.514 0 0 1-2.15-.572 1.504 1.504 0 0 1 .639-2.034l27.348-15.897a40.934 40.934 0 0 0-2.085-13.185L28.374 38.522a1.51 1.51 0 0 1-.77.211 1.51 1.51 0 0 1-1.3-.753c-.016-.026-.031-.05-.045-.077a1.504 1.504 0 0 1 .589-2.048l49.076-28.51a40.829 40.829 0 0 0-2.417-4.882l-.003-.004a1.505 1.505 0 0 1 .546-2.06c.002 0 .003-.002.005-.003A1.514 1.514 0 0 1 76.12.94 43.79 43.79 0 0 1 78.07 41.55zm-33.604 5.5l-6.679 3.873c-.226.14-.489.214-.755.212a1.514 1.514 0 0 1-1.315-.74l-.002-.004a1.503 1.503 0 0 1 .546-2.059l6.679-3.888h.015a1.513 1.513 0 0 1 2.15.574c.386.737.1 1.647-.64 2.033zm54.213 56.04l-7.056 4.113a1.512 1.512 0 0 1-1.976-.526 1.503 1.503 0 0 1 .465-2.08l7.056-4.113a1.512 1.512 0 0 1 2.057.546c.42.72.175 1.641-.546 2.06zm23.072 39.886l-6.723 3.873c-.23.13-.491.197-.756.196a1.513 1.513 0 0 1-1.239-.738l-.003-.004a1.505 1.505 0 0 1 .547-2.06l6.663-3.874a1.514 1.514 0 0 1 2.055.543l.003.004c.42.72.175 1.641-.547 2.06z"></path></g></g></svg> 