<?xml version="1.0" encoding="UTF-8"?> <svg xmlns="http://www.w3.org/2000/svg" width="85" height="96" viewBox="0 0 170 192"><g><g><path fill="#05585e" d="M64.867 156.378H42.263c-4.874 0-8.825-3.96-8.825-8.847a8.39 8.39 0 0 1 0-.884l-3.917 3.926a8.794 8.794 0 0 1-13.728 0c-3.05-3.8-2.449-9.359 1.343-12.417l7.957-7.978 7.958-8.025a8.81 8.81 0 0 1 12.28 0c3.501 3.4 3.59 9.001.199 12.512l-4.119 4.112h23.456v-.077c4.583.193 8.255 3.873 8.447 8.469.205 4.881-3.578 9.005-8.447 9.21zm-30.624-14.807l-8.081-8.102-6.844 6.876a5.769 5.769 0 0 0 0 8.118 5.874 5.874 0 0 0 8.098 0zm2.291-2.189l6.86-6.89a5.656 5.656 0 0 0 1.671-4.052 5.752 5.752 0 0 0-1.668-4.032 5.719 5.719 0 0 0-8.101-.019l-6.92 6.875zm15.467 2.5h-9.707c-3.158 0-5.72 2.561-5.728 5.726 0 3.172 2.564 5.744 5.728 5.744H52zm12.866 0h-9.77v11.47h9.77a5.736 5.736 0 0 0 5.423-5.437c.164-3.168-2.264-5.869-5.423-6.033zM11.608 98.079v5.712a1.55 1.55 0 0 1-1.548 1.553 1.55 1.55 0 0 1-1.548-1.553V98.08a1.55 1.55 0 0 1 1.548-1.55 1.55 1.55 0 0 1 1.548 1.55zm0 11.921v15.692a1.55 1.55 0 0 1-1.548 1.553 1.55 1.55 0 0 1-1.548-1.553V110a1.55 1.55 0 0 1 1.548-1.551A1.55 1.55 0 0 1 11.608 110zm139.084 53.199c-7.114 7.138-18.652 7.14-25.77.009a18.245 18.245 0 0 1-5.342-12.851 18.293 18.293 0 0 1 5.333-12.986c7.114-7.136 18.652-7.14 25.77-.008 7.12 7.133 7.123 18.7.009 25.836zm-6.2.692L124.24 143.59a15.191 15.191 0 0 0 2.864 17.43 15.145 15.145 0 0 0 17.386 2.872zM151.38 157a15.198 15.198 0 0 0 0-13.392c-3.689-7.514-12.756-10.608-20.25-6.91l11.58 11.595.009.008a1.556 1.556 0 0 1-.018 2.205c-.607.604-1.588.6-2.19-.009l-12.076-12.107c-.466.368-.91.762-1.331 1.18-.416.418-.804.865-1.162 1.334l21.242 21.296c.449-.373.898-.76 1.332-1.18.415-.418.803-.865 1.16-1.335l-4.288-4.299c-.6-.605-.6-1.584 0-2.189l.009-.008a1.546 1.546 0 0 1 2.19.008zm-74.128-54.76a1.55 1.55 0 0 1-1.549 1.552H52.62a1.55 1.55 0 0 1-1.548-1.552 1.55 1.55 0 0 1 1.548-1.551h23.084a1.55 1.55 0 0 1 1.549 1.55zm0 8.025a1.55 1.55 0 0 1-1.549 1.552H52.62a1.55 1.55 0 0 1-1.548-1.552 1.55 1.55 0 0 1 1.548-1.553h23.084a1.55 1.55 0 0 1 1.549 1.553zm0 7.606a1.55 1.55 0 0 1-1.549 1.552H66.57a1.55 1.55 0 0 1-1.548-1.552 1.55 1.55 0 0 1 1.548-1.553h9.134a1.55 1.55 0 0 1 1.549 1.553zm25.421-49.514v41.908a1.55 1.55 0 0 1-1.548 1.552 1.55 1.55 0 0 1-1.548-1.552V68.356a1.55 1.55 0 0 1 1.548-1.552 1.55 1.55 0 0 1 1.548 1.552zm0-15.645v6.984a1.55 1.55 0 0 1-1.548 1.552 1.55 1.55 0 0 1-1.548-1.552V52.71a1.55 1.55 0 0 1 1.548-1.552 1.55 1.55 0 0 1 1.548 1.552zm67.316 6.984v118.692c0 7.519-6.079 13.613-13.578 13.613h-37.807a1.55 1.55 0 0 1-1.548-1.552 1.55 1.55 0 0 1 1.548-1.553h37.807c5.786-.008 10.473-4.707 10.482-10.508V97.878c-.712.248-1.41.497-2.09.76a45.79 45.79 0 0 1-31.584 0 64.114 64.114 0 0 0-22.62-4.082v95.876a1.55 1.55 0 0 1-1.547 1.553H75.689a1.622 1.622 0 0 1-.263 0H9.735c-5.379 0-9.738-4.371-9.738-9.764V81.333c-.012-4.96 3.681-9.143 8.592-9.733v-6.611H1.545a1.55 1.55 0 0 1-1.548-1.553V38.85c.05-5.518 4.527-9.966 10.032-9.964h64.127v-10.26h-3.499a1.55 1.55 0 0 1-1.548-1.552V1.55a1.55 1.55 0 0 1 1.548-1.55h43.427a1.55 1.55 0 0 1 1.549 1.55v15.444a1.55 1.55 0 0 1-1.549 1.553h-3.483v39.596h57.841a1.55 1.55 0 0 1 1.548 1.55zM69.728 43.04h5.202V31.912h-5.202zm-8.298 0h5.202V31.912H61.43zm-8.314 0h5.217V31.912h-5.217zM32.06 46.145l-.077 4.967c.008.98.803 1.77 1.78 1.77h19.012c.975 0 1.765-.793 1.765-1.77v-4.967zm12.835-3.104h5.202V31.912h-5.202zm-8.391 0h5.295l-.078-11.129h-5.217zm-8.299 0h5.28V31.912h-5.202zm-8.236 0h5.217V31.912h-5.217zm-8.299 0h5.202V31.912H11.67zm-8.577 0h5.403V32.082a6.982 6.982 0 0 0-5.403 6.768zm80.352 18.843v-15.74H57.637v4.968a4.884 4.884 0 0 1-4.877 4.874H33.763a4.884 4.884 0 0 1-4.877-4.874v-4.967H3.093v15.739zm0-18.843v-4.19a6.981 6.981 0 0 0-5.419-6.769v10.96zM11.685 64.99v6.534h63.168v-6.534zm71.76 117.248v-8.707H3.093v8.707c0 3.677 2.974 6.658 6.642 6.658h67.068c3.665-.008 6.634-2.983 6.642-6.658zm0-11.812V91.561H3.093v78.864zm0-89.092c-.008-3.675-2.977-6.651-6.642-6.66H9.735c-3.665.009-6.633 2.985-6.642 6.66v7.123h80.352zm29.091-65.812V3.104h-40.33v12.34h7.957a1.55 1.55 0 0 1 1.548 1.551 1.55 1.55 0 0 1-1.548 1.553h-2.91v10.29c5.23.39 9.279 4.754 9.289 10.012v24.586a1.55 1.55 0 0 1-1.548 1.553h-7.045v6.674c4.894.587 8.58 4.744 8.593 9.684v100.89a9.761 9.761 0 0 1-2.694 6.721l23.656.077V174.26H93.2a1.55 1.55 0 0 1-1.548-1.552 1.55 1.55 0 0 1 1.548-1.553h14.305V35.094H90.025a1.55 1.55 0 0 1-1.548-1.552 1.55 1.55 0 0 1 1.548-1.553h17.48V18.626H87.485a1.55 1.55 0 0 1-1.548-1.552 1.55 1.55 0 0 1 1.548-1.553zm54.358 45.726H110.6V91.53a67.392 67.392 0 0 1 23.765 4.3 42.652 42.652 0 0 0 29.308 0v-.078a59.837 59.837 0 0 1 3.22-1.133zm-34.216 115.138a1.545 1.545 0 0 1-.124.59 1.534 1.534 0 0 1-.34.512.954.954 0 0 1-.232.187.875.875 0 0 1-.264.14 1.119 1.119 0 0 1-.294.092h-.294a1.356 1.356 0 0 1-.604-.124 1.542 1.542 0 0 1-.96-1.428 1.854 1.854 0 0 1 0-.294l.093-.295.14-.264a1.53 1.53 0 0 1 .201-.249c.143-.14.31-.25.495-.325a1.544 1.544 0 0 1 1.719.357c.296.29.463.686.464 1.101zm28.636-8a1.55 1.55 0 0 1-1.558 1.543 1.545 1.545 0 0 1-.588-.124 1.552 1.552 0 0 1-.52-.335 1.554 1.554 0 0 1 .01-2.195c.147-.141.32-.252.51-.325a1.542 1.542 0 0 1 2.146 1.437zm-36.95-46.898c.007.097.007.195 0 .294a1.577 1.577 0 0 1-.155.264.67.67 0 0 1-.185.232l-.232.203-.264.14-.294.093h-.31a1.548 1.548 0 0 1-1.284-.7.858.858 0 0 1-.28-.232 1.074 1.074 0 0 1-.092-.294 1.872 1.872 0 0 1 0-.296c-.002-.412.159-.809.449-1.101a1.621 1.621 0 0 1 1.409-.435l.294.092.263.14.232.203c.29.292.452.689.45 1.101a.968.968 0 0 1 0 .296zm-3.87-13.674c.002.412-.16.809-.449 1.101-.07.071-.148.134-.232.186l-.279.155h-.279a1.024 1.024 0 0 1-.31 0 1.543 1.543 0 0 1-1.098-.31 1.558 1.558 0 0 1-.45-1.103 1.547 1.547 0 0 1 1.858-1.551c.098.018.191.049.28.093l.278.14.232.185c.283.299.443.693.449 1.104zm42.414 17.47a1.549 1.549 0 0 1-1.557 1.542 1.544 1.544 0 0 1-.588-.046 1.285 1.285 0 0 1-.511-.342c-.6-.605-.6-1.583 0-2.188.366-.363.888-.52 1.393-.42h.294l.264.14.247.202c.296.294.46.695.458 1.111zm-28.79-16.881a1.57 1.57 0 0 1-.34.512l-.233.186-.263.155h-.294a1.024 1.024 0 0 1-.31 0 1.57 1.57 0 0 1-.588 0 1.855 1.855 0 0 1-.495-.34l-.01-.01a1.556 1.556 0 0 1 .01-2.196c.142-.14.31-.25.495-.325.283-.12.596-.153.898-.093.198.043.387.122.557.233l.233.185c.14.152.256.324.34.513.144.38.144.8 0 1.18zm25.623 5.696a1.55 1.55 0 0 1-1.548 1.553 1.55 1.55 0 0 1-1.548-1.553 2.139 2.139 0 0 1 0-.31c.016-.102.048-.202.092-.295a.862.862 0 0 1 .14-.264l.186-.232a1.545 1.545 0 0 1 2.384.232c.06.083.112.171.155.264.054.094.1.193.14.294.014.103.014.208 0 .311zm-9.49 12.851c.002.413-.16.81-.45 1.103-.292.29-.687.452-1.099.45a.924.924 0 0 1-.294 0h-.294a1.529 1.529 0 0 1-.232-.264.68.68 0 0 1-.233-.186 1.557 1.557 0 0 1-.464-1.103 1.854 1.854 0 0 1 0-.294.929.929 0 0 1 .093-.295.879.879 0 0 1 .14-.264 1.545 1.545 0 0 1 2.384-.248c.29.292.45.689.448 1.101zm-29.773 6.721c.005.207-.032.414-.108.606-.086.183-.201.35-.34.497-.07.071-.148.133-.233.186l-.278.155h-.28a1.024 1.024 0 0 1-.309 0 1.548 1.548 0 0 1-1.099-.45 1.679 1.679 0 0 1-.45-.995 1.554 1.554 0 0 1 .459-1.093 1.546 1.546 0 0 1 2.19.008c.139.146.254.314.34.497.074.188.11.388.108.589z"></path></g></g></svg> 