<svg xmlns="http://www.w3.org/2000/svg" width="25" height="25" viewBox="0 0 50 50"><g><g><path fill="#05585e" d="M38.215 19.775L22.517 35.008l-9.773-9.756 3.324-3.326 6.2 6.228 12.097-12.328zm11.772 5.227c0 13.813-11.19 25.01-24.995 25.01-13.805 0-24.996-11.197-24.996-25.01 0-13.811 11.191-25.008 24.996-25.008 13.805 0 24.995 11.197 24.995 25.008zm-4.524 0c-.014-11.305-9.17-20.47-20.471-20.482-11.306 0-20.472 9.171-20.472 20.482 0 11.312 9.166 20.484 20.472 20.484 11.306 0 20.471-9.172 20.471-20.484z"/></g></g></svg>