<svg xmlns="http://www.w3.org/2000/svg" width="34" height="34" viewBox="0 0 68 68"><g><g><path fill="#05585e" d="M44.957 41.533c-.28 0-.56-.101-.78-.308l-6.235-5.847-1.275 1.112a4.05 4.05 0 0 1-2.66.976 4.039 4.039 0 0 1-2.659-.976l-1.275-1.112-6.236 5.847c-.22.207-.5.308-.78.308-.304 0-.607-.12-.832-.361a1.137 1.137 0 0 1 .052-1.61l6.068-5.691-10.307-8.99v18.7c0 .77.625 1.392 1.393 1.392h29.152c.768 0 1.393-.622 1.393-1.393V24.884L39.671 33.87l6.067 5.692c.459.43.482 1.153.05 1.61a1.13 1.13 0 0 1-.831.36zm3.626 5.722H19.431a3.679 3.679 0 0 1-3.674-3.675V24.654a3.679 3.679 0 0 1 3.674-3.675h29.152a3.679 3.679 0 0 1 3.674 3.675V43.58a3.679 3.679 0 0 1-3.674 3.675zM32.847 34.772c.618.537 1.702.537 2.32 0l13.199-11.51H19.652zM.004 34.118C.004 15.371 15.258.12 34.007.12c18.75 0 34.003 15.251 34.003 33.998 0 4.892-1.017 9.612-3.023 14.033a1.14 1.14 0 1 1-2.078-.939 31.48 31.48 0 0 0 2.82-13.094c0-17.49-14.23-31.716-31.722-31.716-17.491 0-31.721 14.227-31.721 31.716s14.23 31.718 31.721 31.718c9.776 0 15.062-3.885 16.748-7.521 1.052-2.267.777-4.605-.755-6.415a1.14 1.14 0 1 1 1.742-1.473c2.13 2.517 2.524 5.742 1.082 8.847-1.982 4.276-7.967 8.843-18.817 8.843-18.75 0-34.003-15.251-34.003-33.999z"/></g></g></svg>