<svg xmlns="http://www.w3.org/2000/svg" width="23.5" height="24.5" viewBox="0 0 47 49"><g><g><path fill="#11aea3" d="M47.082 13.805V35.14c-.009 7.255-5.819 13.13-12.988 13.14H13.006C5.836 48.275.025 42.395.018 35.14V13.805C.025 6.551 5.836.673 13.006.663h21.088c7.17.01 12.98 5.888 12.988 13.142zm-4.176-.007c-.004-4.923-3.947-8.911-8.812-8.916H13.006c-4.868.005-8.811 3.999-8.812 8.923V35.14c.004 4.922 3.946 8.91 8.812 8.914h21.09c4.864-.007 8.806-3.992 8.81-8.914zm-4.553-4.27c.573.581.895 1.369.896 2.19 0 .811-.326 1.612-.896 2.194a3.065 3.065 0 0 1-2.164.905c-.808 0-1.596-.33-2.164-.91a3.139 3.139 0 0 1-.9-2.188c.005-1.707 1.374-3.094 3.064-3.1v.002c.81.004 1.588.328 2.164.906zM35.679 24.47c-.008 6.771-5.433 12.262-12.13 12.273-6.693-.01-12.118-5.502-12.125-12.273.008-6.77 5.432-12.257 12.126-12.267 6.695.007 12.12 5.494 12.129 12.267zm-4.175 0c-.007-4.439-3.564-8.039-7.954-8.045-4.39.007-7.945 3.606-7.95 8.045.005 4.44 3.56 8.038 7.95 8.045 4.39-.005 7.947-3.605 7.954-8.045z"/></g></g></svg>