<svg xmlns="http://www.w3.org/2000/svg" width="34" height="34" viewBox="0 0 68 68"><g><g><path fill="#05585e" d="M46.2 54.541c-4.398 0-12.572-3.036-21.13-11.593-4.79-4.79-8.451-10.137-10.308-15.06-1.76-4.666-1.726-8.385.094-10.203.237-.234.477-.49.725-.75 1.464-1.539 3.285-3.455 5.674-3.455 1.77 0 3.459 1.027 5.16 3.143 4.501 5.598 2.877 7.974.09 10.718l-.42.414c-.012.014-1.256 1.42 5.75 8.425 5.295 5.296 7.405 5.87 8.066 5.87.245 0 .321-.078.363-.12l.423-.426c1.32-1.339 2.683-2.722 4.768-2.722 1.66 0 3.55.898 5.94 2.819 2.044 1.642 3.07 3.27 3.142 4.978.075 1.824-.973 3.32-2.164 4.582 1.563 2.372 1.737 5.237.452 8.005-1.983 4.277-7.967 8.843-18.818 8.843C15.259 68.009.004 52.759.004 34.01c0-18.747 15.255-34 34.003-34 18.75 0 34.003 15.253 34.003 34 0 4.89-1.016 9.612-3.023 14.034-.26.575-.939.826-1.51.569a1.143 1.143 0 0 1-.568-1.51 31.488 31.488 0 0 0 2.82-13.093c0-17.49-14.231-31.718-31.722-31.718S2.287 16.52 2.287 34.01c0 17.49 14.229 31.718 31.72 31.718 9.776 0 15.063-3.886 16.748-7.522.865-1.866.832-3.778-.058-5.405-.125.12-.247.24-.366.357-.902.904-2.33 1.382-4.13 1.382zm-24.945-38.78c-1.41 0-2.796 1.459-4.02 2.745-.261.276-.516.542-.766.793-.907.906-1.126 3.664.427 7.782 1.746 4.627 5.22 9.69 9.788 14.256C34.23 48.88 41.924 52.258 46.2 52.258c1.164 0 2.059-.252 2.518-.712.25-.248.518-.503.791-.763.168-.16.34-.322.51-.487a1.149 1.149 0 0 1 .115-.111c1.12-1.095 2.173-2.294 2.122-3.512-.041-.997-.812-2.107-2.29-3.293-1.938-1.56-3.415-2.316-4.512-2.316-1.078 0-1.858.736-3.144 2.04l-.434.439c-.514.513-1.198.786-1.976.786-1.35 0-3.822-.677-9.68-6.536-6.017-6.015-7.789-9.608-5.749-11.65l.433-.429c2.258-2.223 3.289-3.239-.27-7.66-1.221-1.522-2.36-2.292-3.38-2.292z"/></g></g></svg>